<svg xmlns="http://www.w3.org/2000/svg" width="32" height="31" viewBox="0 0 32 31"><path fill="#8f2e21" d="M26.43 19.98a5.56 5.56 0 0 0-5.25 3.68H10.82a5.56 5.56 0 0 0-5.25-3.68A5.54 5.54 0 0 0 0 25.49 5.54 5.54 0 0 0 5.57 31a5.55 5.55 0 0 0 5.25-3.68h10.36A5.55 5.55 0 0 0 26.43 31 5.54 5.54 0 0 0 32 25.49a5.54 5.54 0 0 0-5.57-5.51zM7.61 17.71a5.52 5.52 0 0 0 3.96-5.01l9.92-2.94a5.62 5.62 0 0 0 6.1 2.03 5.5 5.5 0 1 0-3.2-10.56 5.53 5.53 0 0 0-3.96 5.02l-9.92 2.94a5.6 5.6 0 0 0-6.1-2.03 5.5 5.5 0 0 0-3.74 6.85 5.59 5.59 0 0 0 6.94 3.7z"/></svg>