<?xml version="1.0" encoding="UTF-8"?>
<svg width="40px" height="42px" viewBox="0 0 40 42" version="1.1" xmlns="http://www.w3.org/2000/svg" xmlns:xlink="http://www.w3.org/1999/xlink">
    <!-- Generator: Sketch 44.1 (41455) - http://www.bohemiancoding.com/sketch -->
    <title>logo</title>
    <desc>Created with Sketch.</desc>
    <defs></defs>
    <g id="404" stroke="none" stroke-width="1" fill="none" fill-rule="evenodd">
        <g id="desktop" transform="translate(-48.000000, -16.000000)" fill="#FFFFFF">
            <g id="header" transform="translate(48.000000, 16.000000)">
                <path d="M26.2327589,38.9713423 L26.1002176,38.6651786 C26.161276,38.7582284 26.2059528,38.8602829 26.2327589,38.9713423 L26.2327589,38.9713423 Z M19.7948244,38.6891914 L19.6741969,38.9863504 C19.6980246,38.8797934 19.7382337,38.7792396 19.7948244,38.6891914 L19.7948244,38.6891914 Z M22.0986608,38.220941 L22.9162472,36.2188703 L23.7785105,38.220941 L22.0986608,38.220941 Z M26.9475886,40.6312301 L26.2327589,38.9713423 L26.1002176,38.6651786 L23.7889351,33.3043115 C23.4464125,32.5073853 22.3145989,32.5178909 21.9869687,33.3208204 L19.7948244,38.6891914 L19.6741969,38.9863504 L18.9951087,40.6492397 C18.7910844,41.1505078 19.029361,41.7223136 19.5297417,41.9264227 C20.0301225,42.1320327 20.600497,41.8919043 20.8045213,41.3906362 L21.2989451,40.1809893 L24.622903,40.1809893 L25.1515791,41.4086458 C25.366028,41.9054115 25.9423594,42.1335335 26.4367832,41.9189187 C26.9326963,41.7043039 27.1620375,41.1279957 26.9475886,40.6312301 L26.9475886,40.6312301 Z M26.7108013,6.63805011 C26.2908389,10.0058512 23.4210957,12.5617182 20.0018272,12.5617182 C16.5840479,12.5617182 13.7143047,10.0058512 13.292853,6.6365493 C13.2586008,6.35589921 13.24073,6.07074671 13.24073,5.78709501 C13.24073,4.7080179 13.4909204,3.66796167 13.9659843,2.72996001 C14.9116444,2.48232758 15.8736859,2.29322644 16.8476413,2.16565822 C15.8409229,3.04662937 15.2050224,4.34182206 15.2050224,5.78709501 L15.2050224,5.8381223 C15.2318285,8.46902934 17.3703605,10.5941659 20.0033164,10.5941659 C22.634783,10.5941659 24.7718258,8.46902934 24.8001212,5.8381223 L24.8001212,5.78709501 C24.8001212,4.34182206 24.1642206,3.04662937 23.1575022,2.16565822 C24.1314576,2.29322644 25.0934992,2.48232758 26.0391592,2.72996001 C26.5127339,3.66796167 26.7644135,4.7080179 26.7644135,5.78709501 C26.7644135,6.07224751 26.7465428,6.35589921 26.7108013,6.63805011 L26.7108013,6.63805011 Z M39.7698455,9.22393307 C38.4325183,7.63008066 36.9060592,6.20131654 35.2262095,4.97215917 C32.7362195,3.14868395 29.9409378,1.78445435 26.9609917,0.950008075 L26.9595024,0.950008075 C24.7137459,0.321171766 22.3786357,0 20.0018272,0 C17.6265078,0 15.2913976,0.321171766 13.0441519,0.950008075 L13.0426627,0.950008075 C10.0627166,1.78445435 7.26594555,3.14868395 4.77744483,4.97215917 C3.09908438,6.20131654 1.57262523,7.63008066 0.233808865,9.22393307 C-0.113181361,9.6381546 -0.0595691375,10.2564853 0.35294714,10.6046715 C0.766952646,10.9528577 1.38349322,10.8988288 1.73048345,10.4846073 C2.96803228,9.01231989 4.37982084,7.69011276 5.93159687,6.55400516 C7.67250492,5.27982371 9.57424963,4.24727149 11.5906649,3.48636455 C11.3896191,4.22776106 11.2853731,4.99917362 11.2853731,5.78709501 C11.2853731,6.15179005 11.3077115,6.51798589 11.3523884,6.87967933 C11.8959568,11.2260038 15.593711,14.5217664 20.0018272,14.5217664 C24.4099433,14.5217664 28.1091868,11.2260038 28.6512659,6.88118014 C28.6959428,6.5194867 28.7197704,6.15329085 28.7197704,5.78709501 C28.7197704,5.00067442 28.6155244,4.22776106 28.4129894,3.48636455 C30.4294047,4.24577069 32.3311494,5.27832291 34.0720574,6.55400516 C35.6253227,7.69161356 37.0371113,9.01231989 38.2746601,10.4861081 C38.6216503,10.9003296 39.2381909,10.9528577 39.6521964,10.6046715 C40.0647127,10.2564853 40.1183249,9.6381546 39.7698455,9.22393307 L39.7698455,9.22393307 Z M33.2797879,8.88475167 C32.8345086,8.58008873 32.2254142,8.69715134 31.9216116,9.14439053 C29.2558927,13.0704903 24.831395,15.4687729 20.0018272,15.4687729 C15.1722593,15.4687729 10.7492509,13.0704903 8.08204274,9.14439053 C7.77824013,8.69715134 7.17063493,8.58158953 6.7238664,8.88625247 C6.27709787,9.18941461 6.16242728,9.79874048 6.46622988,10.2459797 C9.4938313,14.7033635 14.518488,17.4288211 20.0018272,17.4288211 C25.4866555,17.4288211 30.5113122,14.7033635 33.5389137,10.2459797 C33.8427163,9.79874048 33.7265564,9.18941461 33.2797879,8.88475167 L33.2797879,8.88475167 Z M7.45358833,20.4199208 C6.91299841,20.4199208 6.47516525,20.8581552 6.47516525,21.3999449 L6.47516525,25.8393192 L2.61955282,20.8041263 C2.05066756,20.061229 0.865241723,20.4634441 0.865241723,21.3999449 L0.865241723,28.7283643 C0.865241723,29.2686532 1.30307488,29.7068876 1.84366481,29.7068876 C2.38425473,29.7068876 2.82059866,29.2686532 2.82059866,28.7283643 L2.82059866,24.2859884 L6.67770032,29.3241829 C7.24658558,30.0670802 8.43052219,29.6633643 8.43052219,28.7283643 L8.43052219,21.3999449 C8.43052219,20.8581552 7.99268903,20.4199208 7.45358833,20.4199208 L7.45358833,20.4199208 Z M37.1830557,33.1512297 L34.3505432,37.4465268 L31.5895136,33.1602345 C31.0608375,32.3392954 29.7905257,32.7144961 29.7905257,33.6915186 L29.7905257,41.0199379 C29.7905257,41.5617277 30.2283588,41.9999621 30.7674595,41.9999621 C31.3080495,41.9999621 31.7458826,41.5617277 31.7458826,41.0199379 L31.7458826,37.0157965 L33.5195537,39.7697693 C33.9022854,40.3640872 34.7675271,40.3685896 35.157705,39.7787742 L37.0207298,36.9527628 L37.0207298,41.0199379 C37.0207298,41.5617277 37.4585629,41.9999621 37.9976636,41.9999621 C38.5382535,41.9999621 38.9760867,41.5617277 38.9760867,41.0199379 L38.9760867,33.6915186 C38.9760867,32.7204993 37.7161994,32.3407962 37.1830557,33.1512297 L37.1830557,33.1512297 Z M15.2526777,40.0399138 L11.6517233,40.0399138 L11.6517233,38.3335012 L14.1714978,38.3335012 C14.7120877,38.3335012 15.1499209,37.893766 15.1499209,37.3534771 C15.1499209,36.8116873 14.7120877,36.3734529 14.1714978,36.3734529 L11.6517233,36.3734529 L11.6517233,34.6715427 L15.2526777,34.6715427 C15.7917784,34.6715427 16.2296115,34.2333084 16.2296115,33.6915186 C16.2296115,33.1512297 15.7917784,32.7129953 15.2526777,32.7129953 L10.6747894,32.7129953 C10.1341995,32.7129953 9.69636636,33.1512297 9.69636636,33.6915186 L9.69636636,41.0199379 C9.69636636,41.5617277 10.1341995,41.9999621 10.6747894,41.9999621 L15.2526777,41.9999621 C15.7917784,41.9999621 16.2296115,41.5617277 16.2296115,41.0199379 C16.2296115,40.479649 15.7917784,40.0399138 15.2526777,40.0399138 L15.2526777,40.0399138 Z M6.04477823,32.6799776 L0.976933856,32.6799776 C0.437833161,32.6799776 0,33.118212 0,33.658501 C0,34.2002907 0.437833161,34.6385251 0.976933856,34.6385251 L2.48552226,34.6385251 L2.48552226,41.0199379 C2.48552226,41.5617277 2.92335542,41.9999621 3.46394535,41.9999621 C4.00304604,41.9999621 4.4408792,41.5617277 4.4408792,41.0199379 L4.4408792,34.6385251 L6.04477823,34.6385251 C6.58387893,34.6385251 7.02171209,34.2002907 7.02171209,33.658501 C7.02171209,33.118212 6.58387893,32.6799776 6.04477823,32.6799776 L6.04477823,32.6799776 Z M17.5386433,27.7483401 L13.9391782,27.7483401 L13.9391782,26.0734444 L16.4574635,26.0734444 C16.9980534,26.0734444 17.4358866,25.63521 17.4358866,25.0949211 C17.4358866,24.5531313 16.9980534,24.1148969 16.4574635,24.1148969 L13.9391782,24.1148969 L13.9391782,22.3799691 L17.5386433,22.3799691 C18.077744,22.3799691 18.5155772,21.9402339 18.5155772,21.3999449 C18.5155772,20.8581552 18.077744,20.4199208 17.5386433,20.4199208 L12.9607551,20.4199208 C12.4216544,20.4199208 11.9838212,20.8581552 11.9838212,21.3999449 L11.9838212,28.7283643 C11.9838212,29.2686532 12.4216544,29.7068876 12.9607551,29.7068876 L17.5386433,29.7068876 C18.077744,29.7068876 18.5155772,29.2686532 18.5155772,28.7283643 C18.5155772,28.1865745 18.077744,27.7483401 17.5386433,27.7483401 L17.5386433,27.7483401 Z M26.8373857,25.0634042 L29.0474007,21.9702499 C29.3616279,21.5305148 29.2603604,20.9181873 28.8225272,20.6030187 C28.3832048,20.2878502 27.7726212,20.3899048 27.4583939,20.8296399 L25.6355783,23.3810044 L23.8112735,20.8296399 C23.4970463,20.3899048 22.8864626,20.2878502 22.4486295,20.6030187 C22.0093071,20.9181873 21.9080396,21.5305148 22.2222668,21.9702499 L24.4322818,25.0634042 L22.2222668,28.1580593 C21.9080396,28.5977944 22.0093071,29.2086211 22.4471403,29.5237897 C22.8864626,29.8389582 23.4970463,29.7384044 23.8112735,29.2986693 L25.6355783,26.745804 L27.4583939,29.2986693 C27.7726212,29.7384044 28.3832048,29.8389582 28.8225272,29.5237897 C29.2603604,29.2086211 29.3616279,28.5977944 29.0474007,28.1580593 L26.8373857,25.0634042 Z M38.9209852,20.4199208 L33.8546301,20.4199208 C33.3155294,20.4199208 32.8776962,20.8581552 32.8776962,21.3999449 C32.8776962,21.9402339 33.3155294,22.3799691 33.8546301,22.3799691 L35.4466153,22.3799691 L35.4466153,28.7283643 C35.4466153,29.2686532 35.8844485,29.7068876 36.4250384,29.7068876 C36.9656283,29.7068876 37.4019722,29.2686532 37.4019722,28.7283643 L37.4019722,22.3799691 L38.9209852,22.3799691 C39.4615752,22.3799691 39.8994083,21.9402339 39.8994083,21.3999449 C39.8994083,20.8581552 39.4615752,20.4199208 38.9209852,20.4199208 L38.9209852,20.4199208 Z" id="logo"></path>
            </g>
        </g>
    </g>
</svg>