<svg xmlns="http://www.w3.org/2000/svg" width="43" height="45" viewBox="0 0 43 45"><path fill="#8f2e21" d="M17.01 33l-.01.01.45 2.54 2.54.45.01-.01-.49-2.5z"/><path fill="#8f2e21" d="M38.1 14.44c-9.18-9.32-14.45-4.53-15.3-1.28-.41 1.55-.37 2.2-.37 2.2-1.38-.69-4.9-1.66-7.92 9.61L8 33.1a32.38 32.38 0 0 0 5.07 6.76A31.93 31.93 0 0 0 19.72 45l8.01-6.6c2.6-1.23 6.82-1.72 9.52-4.46 5.54-5.62 9.16-11.06.85-19.5zM25.12 34.45c-.54.55-1.43.55-1.97 0a1.43 1.43 0 0 1-.3-.44l-1.7-.34.33 1.73a1.43 1.43 0 0 1 .43 2.31c-.54.56-1.43.56-1.97 0a1.32 1.32 0 0 1-.29-.42l-1.8-.32.31 1.83c.15.07.29.16.42.29.54.55.54 1.45 0 2.01a1.4 1.4 0 0 1-1.98 0 1.43 1.43 0 0 1 0-2.01l.01-.01-.41-2.4-2.37-.43-.01.02a1.4 1.4 0 0 1-1.98 0 1.45 1.45 0 0 1 0-2.01 1.4 1.4 0 0 1 2.27.42l1.8.32-.32-1.83a1.42 1.42 0 0 1-.41-2.29 1.38 1.38 0 0 1 2.27.44l1.71.33-.33-1.73a1.43 1.43 0 0 1-.44-.3 1.45 1.45 0 0 1 0-2.01 1.4 1.4 0 0 1 1.98 0c.54.56.54 1.45 0 2.01l.45 2.36 2.33.46a1.38 1.38 0 0 1 1.97 0c.55.56.55 1.46 0 2.01zM11 26.6l-.62-.6-2.38.51v.01L9.48 28z"/><path fill="#8f2e21" d="M5.66 29.64c.16.05.31.14.44.24l1.73-.53-1.08-1.48c-.17.01-.33-.01-.5-.06a1.41 1.41 0 0 1-.88-1.77 1.38 1.38 0 0 1 1.75-.9c.17.06.32.15.45.26l1.66-.48-1.06-1.38a1.4 1.4 0 0 1-1.4-1.84 1.39 1.39 0 0 1 1.75-.89 1.4 1.4 0 0 1 .88 1.76l1.45 1.88 2.26-.65c.07-.21.19-.4.33-.55 1.28-4.23 2.62-6.55 2.62-6.55s-1.38-3.75-5.61-2.08c5-2.4 1.37-6.24 1.37-6.24s4.3 3.32 8.46 5.13a4.2 4.2 0 0 1 .89-.04l.18-.76A7.05 7.05 0 0 1 27 7.64c-1.03-2.33-3.48-4.79-8.61-6.49-11.07-3.67-14.19 2-16.61 9.47-1.18 3.64.29 7.64.39 10.51L0 31.26A31.84 31.84 0 0 0 7.72 35c-.31-.49-.61-.99-.9-1.5l-.49-.84 1.28-1.59-1.06.32v.02a1.39 1.39 0 1 1-2.64-.87 1.38 1.38 0 0 1 1.75-.9z"/></svg>