<svg xmlns="http://www.w3.org/2000/svg" width="22" height="22" viewBox="0 0 22 22"><path fill="#3a393d" d="M16.73 14.55c-.72-.71-1.62-.71-2.33 0l-1.63 1.63c-.15.15-.27.19-.45.09-.35-.2-.73-.35-1.06-.56-1.58-1-2.91-2.27-4.08-3.71a9.77 9.77 0 0 1-1.46-2.34c-.07-.17-.06-.29.08-.43.55-.53 1.08-1.07 1.61-1.61.75-.75.75-1.63 0-2.38L6.13 3.96c-.44-.44-.87-.89-1.32-1.32-.71-.7-1.61-.7-2.33 0-.55.54-1.07 1.1-1.63 1.63a2.62 2.62 0 0 0-.83 1.79A7.58 7.58 0 0 0 .6 9.32c.81 2.17 2.03 4.1 3.52 5.87a21.83 21.83 0 0 0 7.22 5.64 10.5 10.5 0 0 0 3.99 1.16c.98.06 1.84-.19 2.52-.95.46-.53.99-1 1.49-1.5.73-.74.73-1.64 0-2.37l-2.61-2.62zm-.88-3.65l1.69-.28a7.53 7.53 0 0 0-6.41-6.23l-.24 1.7c1.27.18 2.42.75 3.33 1.67a5.8 5.8 0 0 1 1.63 3.14zm2.64-7.34A12.43 12.43 0 0 0 11.35 0l-.24 1.7a10.8 10.8 0 0 1 9.2 8.91l1.69-.29a12.55 12.55 0 0 0-3.51-6.76z"/></svg>