<svg xmlns="http://www.w3.org/2000/svg" width="44" height="26" viewBox="0 0 44 26"><path fill="#8f2e21" d="M41.76 4.15c-.87-.19-1.73.31-1.93 1.12l-.53 2.07-15.59-3.79V1.5c0-.83-.72-1.5-1.61-1.5-.89 0-1.61.67-1.61 1.5v2.04L4.76 7.33l-.6-2.1c-.22-.8-1.1-1.28-1.96-1.07-.86.21-1.37 1.03-1.15 1.83l3.77 13.28v5.23c0 .83.72 1.5 1.61 1.5h31.75c.88 0 1.6-.67 1.6-1.5v-5.42c0-.14-.02-.26-.05-.39l3.23-12.74c.2-.8-.33-1.61-1.2-1.8zM6.28 12.68l14.21-3.11v4.97L7.58 17.29zm30.51 4.57l-13.08-2.76V9.67l14.02 3.85zm2.14-8.46l-.83 3.27-14.39-3.95V5.09zm-18.44-3.7v2.94l-14.62 3.2-.7-2.46z"/></svg>