<svg xmlns="http://www.w3.org/2000/svg" width="30" height="38" viewBox="0 0 30 38"><path fill="#8f2e21" d="M30 25.92v10.35a.8.8 0 0 1-.55.75c-.11.04-2.92.98-8.72.98-5.83 0-10.2-.99-11.32-1.66-.37-.22-.94-.25-1.9-.29-.78-.04-1.75-.09-3.04-.26-1.2-.17-1.96-.52-2.38-1.11-.54-.76-.34-1.65-.14-2.5.08-.33.16-.67.19-1.02.09-.71-.22-1.5-.64-2.6A21.28 21.28 0 0 1 .1 23.5c-.32-2.29.2-8.04.79-12.66.32-2.53.69-4.91 1.04-6.7C2.55.89 2.89.67 3.18.48 3.56.23 4.28 0 6.96 0 8.9 0 10.91.13 11 .13c.22.02.44.12.58.3.08.1 2.07 2.53 2.07 5.34 0 2.55-3.52 4-5.08 4.52.2 1.56.84 5.67 2.38 8.48a14.6 14.6 0 0 1 1.59 7.13c1.67-.92 4.61-2.27 7.68-2.27 3.69 0 7.32 1.01 8.69 1.39l.38.11c.4.05.71.38.71.79z"/></svg>