<svg xmlns="http://www.w3.org/2000/svg" width="37" height="33" viewBox="0 0 37 33"><path fill="#8f2e21" d="M32.42 13.21c-4.69 4.48-8.2 5.77-11.7 9.12-2.49 2.38-1.5 3.5-5.01 6.86-3.46 3.31-5.16 2.78-5.16 2.78s-2.76-1.3-3.3-3.77c0 0 1.55.43 4.71-2.6 1.17-1.11 3.33-1.4 4.48-2.3 1.45-1.14 2.64-2.29 2.93-2.57.55-.53 4.01-2.37 7.31-4.69.9-.64.34-2.19 1.41-3.21 1.06-1.02 3.4-.59 4.17-1.32C39.06 5 35.22.76 35.22.76s5.48 4.52-2.8 12.45zM10.87 24.56c.98-.93 3.06-1.34 4.16-2.19 1.04-.79 1.81-1.33 3.08-2.54 1.66-1.59 4.29-2.95 7.14-4.82.8-.52.78-2.81 1.6-3.43.86-.66 3.83-.89 4.67-1.69C37 4.65 34.06.29 34.06.29S31.38-1.2 27.4 2.6c-.29.28-.62.53-.99.78l.42 1.57a.67.67 0 0 1-.47.81.67.67 0 0 1-.81-.47l-.33-1.25c-.34.16-.7.32-1.07.47L24.54 6a.66.66 0 0 1-1.27.33l-.37-1.37c-.36.11-.73.23-1.11.33l.39 1.47a.67.67 0 0 1-.47.81.66.66 0 0 1-.8-.47l-.39-1.47-1.17.26.38 1.44a.66.66 0 0 1-.47.8.67.67 0 0 1-.81-.47l-.4-1.51-1.14.19.37 1.38a.66.66 0 0 1-.47.8.67.67 0 0 1-.81-.47l-.4-1.51-1.18.16.37 1.41a.65.65 0 0 1-.47.8.64.64 0 0 1-.8-.46l-.42-1.6c-1.95.21-3.37.28-3.64.28-3.05.06-2.41 3.74.48 3.74 0 1.43-.13 3.25-1.33 4.4-4.4 4.21-6.75.76-7.34 2.57-.67 2.08-.1 2.77 1.66 4.66a48.89 48.89 0 0 1 3.13 4.28s1.31 1.13 4.81-2.22z"/></svg>