<svg xmlns="http://www.w3.org/2000/svg" width="33" height="28" viewBox="0 0 33 28"><path fill="#8f2e21" d="M30.24 1.01a6.48 6.48 0 0 0-8.07.9 14.95 14.95 0 0 0-10.34 0 6.45 6.45 0 0 0-9.76.7 5.7 5.7 0 0 0 1.29 7.94c-.97 2.99-.81 6.26.5 9.2A14.33 14.33 0 0 0 17 28c7.86 0 14.26-6.06 14.26-13.51 0-1.37-.22-2.69-.62-3.94a5.74 5.74 0 0 0-.4-9.54zM4.18 8.58a3.81 3.81 0 0 1 .75-5.93 4.31 4.31 0 0 1 4.89.18 13.9 13.9 0 0 0-5.64 5.75zm6.56 3.61c0-.55.47-.99 1.04-.99.58 0 1.05.44 1.05.99 0 .54-.47.99-1.05.99-.57 0-1.04-.45-1.04-.99zm7.3 11.12v-1.18a1.94 1.94 0 0 0 1.05-1.71c0-1.09-.94-1.97-2.09-1.97s-2.09.88-2.09 1.97c0 .74.42 1.37 1.05 1.72v1.17c-2.27-.35-4.18-1.89-4.18-3.87.01-2.19 2.36-3.96 5.22-3.96 2.87 0 5.22 1.78 5.22 3.96 0 1.98-1.91 3.52-4.18 3.87zm4.18-10.13c-.58 0-1.05-.45-1.05-.99 0-.55.47-.99 1.05-.99.57 0 1.04.44 1.04.99 0 .54-.47.99-1.04.99zm1.96-10.35a4.3 4.3 0 0 1 4.18-.54 3.84 3.84 0 0 1 1.46 6.29 13.88 13.88 0 0 0-5.64-5.75z"/></svg>