<svg xmlns="http://www.w3.org/2000/svg" width="29" height="38" viewBox="0 0 29 38"><path fill="#8f2e21" d="M24.59 22.84c-4.02-1.35-5.69-3.04-5.69-3.04l-.13.13c-1.19 1.16-2.51 1.85-3.72 1.85h-.11c-1.2 0-2.52-.69-3.72-1.85l-.13-.13s-1.67 1.69-5.69 3.04c-5.93 2.29-4.15 11.6-4.15 11.67.19 1.04.3 1.4.39 1.44 5.96 2.73 20.76 2.73 26.71 0 .1-.04.21-.4.39-1.44 0-.07 1.81-9.34-4.15-11.67zM21.23 9.96l-.05-.05-.31-.3s.58-3.03.11-4.47c-.73-2.29-5.11-3.82-5.98-4l-.57-.11s-.69-.15-1.49.21c-.52.21-3.25 1.49-4.02 3.9-.47 1.44.11 4.47.11 4.47l-.31.3-.05.05c-.22.27-.17 1.1.08 1.96.23.86.52 1.09.59 1.3.7 3.43 3.17 6.36 5.68 6.36 2.5 0 4.84-2.93 5.54-6.36.07-.21.37-.44.59-1.3.25-.86.31-1.75.08-1.96z"/></svg>