<svg xmlns="http://www.w3.org/2000/svg" width="24" height="24" viewBox="0 0 24 24"><path fill="#b03725" d="M0 2.4A2.4 2.4 0 0 1 2.4 0h19.2A2.4 2.4 0 0 1 24 2.4v19.2a2.4 2.4 0 0 1-2.4 2.4H2.4A2.4 2.4 0 0 1 0 21.6zm19.71 5.91c.07-.34-.08-.53-.44-.53h-1.79c-.42 0-.57.18-.69.44 0 0-.97 2.07-2.16 3.38-.38.42-.57.55-.78.55-.17 0-.25-.14-.25-.53V8.29c0-.47-.05-.61-.44-.61h-2.88c-.22 0-.36.13-.36.31 0 .43.68.53.68 1.73v2.45c0 .5-.03.69-.26.69-.62 0-2.09-2.13-2.92-4.55-.16-.49-.34-.63-.81-.63h-1.8c-.26 0-.45.18-.45.44 0 .48.56 2.71 2.78 5.69 1.48 2 3.43 3.09 5.19 3.09 1.07 0 1.33-.18 1.33-.63v-1.54c0-.39.15-.55.37-.55.25 0 .68.08 1.7 1.08 1.21 1.16 1.29 1.64 1.95 1.64h2.02c.21 0 .4-.1.4-.44 0-.46-.59-1.27-1.5-2.23-.37-.49-.97-1.03-1.17-1.27-.27-.29-.19-.46 0-.76 0 0 2.08-2.92 2.28-3.89z"/></svg>